<mxfile host="app.diagrams.net" modified="2023-12-04T14:25:13.770Z" agent="Mozilla/5.0 (Windows NT 10.0; Win64; x64) AppleWebKit/537.36 (KHTML, like Gecko) Chrome/119.0.0.0 Safari/537.36" etag="kmQuMU7HdKhysj7L89Pu" version="22.1.5" type="device">
  <diagram name="Page-1" id="ZawDKMkok4YNHOX4rQLK">
    <mxGraphModel dx="1483" dy="1437" grid="1" gridSize="10" guides="1" tooltips="1" connect="1" arrows="1" fold="1" page="1" pageScale="1" pageWidth="850" pageHeight="1100" math="0" shadow="0">
      <root>
        <mxCell id="0" />
        <mxCell id="1" parent="0" />
        <mxCell id="ZI4Q1Gcq6WXjkIjY-rak-1" value="" style="ellipse;whiteSpace=wrap;html=1;aspect=fixed;fillColor=#000000;" parent="1" vertex="1">
          <mxGeometry x="580" y="-80" width="30" height="30" as="geometry" />
        </mxCell>
        <mxCell id="ZI4Q1Gcq6WXjkIjY-rak-2" value="" style="endArrow=classic;html=1;rounded=0;exitX=0.5;exitY=1;exitDx=0;exitDy=0;" parent="1" source="ZI4Q1Gcq6WXjkIjY-rak-1" edge="1">
          <mxGeometry width="50" height="50" relative="1" as="geometry">
            <mxPoint x="595" y="-10" as="sourcePoint" />
            <mxPoint x="595" y="-10" as="targetPoint" />
          </mxGeometry>
        </mxCell>
        <mxCell id="ZI4Q1Gcq6WXjkIjY-rak-3" value="HomePage" style="rounded=1;whiteSpace=wrap;html=1;" parent="1" vertex="1">
          <mxGeometry x="535" y="-10" width="120" height="60" as="geometry" />
        </mxCell>
        <mxCell id="ZI4Q1Gcq6WXjkIjY-rak-5" value="Start" style="text;html=1;align=center;verticalAlign=middle;resizable=0;points=[];autosize=1;strokeColor=none;fillColor=none;" parent="1" vertex="1">
          <mxGeometry x="610" y="-80" width="50" height="30" as="geometry" />
        </mxCell>
        <mxCell id="ZI4Q1Gcq6WXjkIjY-rak-7" value="" style="endArrow=classic;html=1;rounded=0;" parent="1" edge="1">
          <mxGeometry width="50" height="50" relative="1" as="geometry">
            <mxPoint x="594.8" y="50" as="sourcePoint" />
            <mxPoint x="594.8" y="90" as="targetPoint" />
          </mxGeometry>
        </mxCell>
        <mxCell id="ZI4Q1Gcq6WXjkIjY-rak-8" value="" style="rhombus;whiteSpace=wrap;html=1;" parent="1" vertex="1">
          <mxGeometry x="555" y="90" width="80" height="80" as="geometry" />
        </mxCell>
        <mxCell id="ZI4Q1Gcq6WXjkIjY-rak-32" style="edgeStyle=orthogonalEdgeStyle;rounded=0;orthogonalLoop=1;jettySize=auto;html=1;entryX=0.952;entryY=0.984;entryDx=0;entryDy=0;entryPerimeter=0;" parent="1" source="ZI4Q1Gcq6WXjkIjY-rak-13" target="ZI4Q1Gcq6WXjkIjY-rak-14" edge="1">
          <mxGeometry relative="1" as="geometry">
            <mxPoint x="850" y="280" as="targetPoint" />
            <Array as="points">
              <mxPoint x="850" y="210" />
              <mxPoint x="414" y="210" />
            </Array>
          </mxGeometry>
        </mxCell>
        <mxCell id="ZI4Q1Gcq6WXjkIjY-rak-13" value="Sign Up" style="rounded=1;whiteSpace=wrap;html=1;" parent="1" vertex="1">
          <mxGeometry x="790" y="98" width="120" height="60" as="geometry" />
        </mxCell>
        <mxCell id="ZI4Q1Gcq6WXjkIjY-rak-14" value="Log In" style="rounded=1;whiteSpace=wrap;html=1;" parent="1" vertex="1">
          <mxGeometry x="300" y="100" width="120" height="60" as="geometry" />
        </mxCell>
        <mxCell id="ZI4Q1Gcq6WXjkIjY-rak-19" value="" style="endArrow=classic;html=1;rounded=0;exitX=1;exitY=0.5;exitDx=0;exitDy=0;" parent="1" source="ZI4Q1Gcq6WXjkIjY-rak-8" edge="1">
          <mxGeometry relative="1" as="geometry">
            <mxPoint x="640" y="130" as="sourcePoint" />
            <mxPoint x="790" y="129.76" as="targetPoint" />
          </mxGeometry>
        </mxCell>
        <mxCell id="ZI4Q1Gcq6WXjkIjY-rak-20" value="Don&#39;t Have Account" style="edgeLabel;resizable=0;html=1;align=center;verticalAlign=middle;" parent="ZI4Q1Gcq6WXjkIjY-rak-19" connectable="0" vertex="1">
          <mxGeometry relative="1" as="geometry" />
        </mxCell>
        <mxCell id="ZI4Q1Gcq6WXjkIjY-rak-22" value="" style="endArrow=classic;html=1;rounded=0;exitX=0;exitY=0.5;exitDx=0;exitDy=0;entryX=1;entryY=0.5;entryDx=0;entryDy=0;" parent="1" source="ZI4Q1Gcq6WXjkIjY-rak-8" target="ZI4Q1Gcq6WXjkIjY-rak-14" edge="1">
          <mxGeometry relative="1" as="geometry">
            <mxPoint x="410" y="170" as="sourcePoint" />
            <mxPoint x="510" y="170" as="targetPoint" />
          </mxGeometry>
        </mxCell>
        <mxCell id="ZI4Q1Gcq6WXjkIjY-rak-23" value="Have Account" style="edgeLabel;resizable=0;html=1;align=center;verticalAlign=middle;" parent="ZI4Q1Gcq6WXjkIjY-rak-22" connectable="0" vertex="1">
          <mxGeometry relative="1" as="geometry" />
        </mxCell>
        <mxCell id="ZI4Q1Gcq6WXjkIjY-rak-24" value="" style="endArrow=classic;html=1;rounded=0;" parent="1" edge="1">
          <mxGeometry width="50" height="50" relative="1" as="geometry">
            <mxPoint x="359.8" y="158" as="sourcePoint" />
            <mxPoint x="359.8" y="198" as="targetPoint" />
          </mxGeometry>
        </mxCell>
        <mxCell id="ZI4Q1Gcq6WXjkIjY-rak-25" value="" style="rhombus;whiteSpace=wrap;html=1;" parent="1" vertex="1">
          <mxGeometry x="320" y="198" width="80" height="80" as="geometry" />
        </mxCell>
        <mxCell id="ZI4Q1Gcq6WXjkIjY-rak-27" value="" style="endArrow=classic;html=1;rounded=0;exitX=0.5;exitY=1;exitDx=0;exitDy=0;" parent="1" source="ZI4Q1Gcq6WXjkIjY-rak-25" edge="1">
          <mxGeometry relative="1" as="geometry">
            <mxPoint x="410" y="357.8" as="sourcePoint" />
            <mxPoint x="360" y="340" as="targetPoint" />
          </mxGeometry>
        </mxCell>
        <mxCell id="ZI4Q1Gcq6WXjkIjY-rak-28" value="Valid account" style="edgeLabel;resizable=0;html=1;align=center;verticalAlign=middle;" parent="ZI4Q1Gcq6WXjkIjY-rak-27" connectable="0" vertex="1">
          <mxGeometry relative="1" as="geometry">
            <mxPoint y="-9" as="offset" />
          </mxGeometry>
        </mxCell>
        <mxCell id="ZI4Q1Gcq6WXjkIjY-rak-29" value="" style="endArrow=classic;html=1;rounded=0;exitX=0;exitY=0.5;exitDx=0;exitDy=0;entryX=-0.022;entryY=0.492;entryDx=0;entryDy=0;entryPerimeter=0;" parent="1" source="ZI4Q1Gcq6WXjkIjY-rak-25" target="ZI4Q1Gcq6WXjkIjY-rak-14" edge="1">
          <mxGeometry relative="1" as="geometry">
            <mxPoint x="320" y="237" as="sourcePoint" />
            <mxPoint x="240" y="130" as="targetPoint" />
            <Array as="points">
              <mxPoint x="240" y="238" />
              <mxPoint x="240" y="130" />
            </Array>
          </mxGeometry>
        </mxCell>
        <mxCell id="ZI4Q1Gcq6WXjkIjY-rak-30" value="Invalid Account" style="edgeLabel;resizable=0;html=1;align=center;verticalAlign=middle;" parent="ZI4Q1Gcq6WXjkIjY-rak-29" connectable="0" vertex="1">
          <mxGeometry relative="1" as="geometry">
            <mxPoint x="5" y="-16" as="offset" />
          </mxGeometry>
        </mxCell>
        <mxCell id="ZI4Q1Gcq6WXjkIjY-rak-34" style="edgeStyle=orthogonalEdgeStyle;rounded=0;orthogonalLoop=1;jettySize=auto;html=1;" parent="1" source="ZI4Q1Gcq6WXjkIjY-rak-33" edge="1">
          <mxGeometry relative="1" as="geometry">
            <mxPoint x="360" y="440" as="targetPoint" />
          </mxGeometry>
        </mxCell>
        <mxCell id="ZI4Q1Gcq6WXjkIjY-rak-33" value="User DashBoard" style="rounded=1;whiteSpace=wrap;html=1;" parent="1" vertex="1">
          <mxGeometry x="300" y="340" width="120" height="60" as="geometry" />
        </mxCell>
        <mxCell id="ZI4Q1Gcq6WXjkIjY-rak-57" style="edgeStyle=orthogonalEdgeStyle;rounded=0;orthogonalLoop=1;jettySize=auto;html=1;" parent="1" source="ZI4Q1Gcq6WXjkIjY-rak-37" edge="1">
          <mxGeometry relative="1" as="geometry">
            <mxPoint x="360" y="850" as="targetPoint" />
          </mxGeometry>
        </mxCell>
        <mxCell id="ZI4Q1Gcq6WXjkIjY-rak-37" value="Choose Destination" style="rounded=1;whiteSpace=wrap;html=1;" parent="1" vertex="1">
          <mxGeometry x="300" y="760" width="120" height="60" as="geometry" />
        </mxCell>
        <mxCell id="ZI4Q1Gcq6WXjkIjY-rak-70" style="edgeStyle=orthogonalEdgeStyle;rounded=0;orthogonalLoop=1;jettySize=auto;html=1;" parent="1" edge="1">
          <mxGeometry relative="1" as="geometry">
            <mxPoint x="140" y="970" as="targetPoint" />
            <mxPoint x="140" y="920" as="sourcePoint" />
          </mxGeometry>
        </mxCell>
        <mxCell id="ZI4Q1Gcq6WXjkIjY-rak-39" value="Select Seat" style="rounded=1;whiteSpace=wrap;html=1;" parent="1" vertex="1">
          <mxGeometry x="80" y="860" width="120" height="60" as="geometry" />
        </mxCell>
        <mxCell id="ZI4Q1Gcq6WXjkIjY-rak-41" style="edgeStyle=orthogonalEdgeStyle;rounded=0;orthogonalLoop=1;jettySize=auto;html=1;" parent="1" source="ZI4Q1Gcq6WXjkIjY-rak-40" edge="1">
          <mxGeometry relative="1" as="geometry">
            <mxPoint x="480" y="480" as="targetPoint" />
          </mxGeometry>
        </mxCell>
        <mxCell id="ZI4Q1Gcq6WXjkIjY-rak-42" style="edgeStyle=orthogonalEdgeStyle;rounded=0;orthogonalLoop=1;jettySize=auto;html=1;" parent="1" source="ZI4Q1Gcq6WXjkIjY-rak-40" edge="1">
          <mxGeometry relative="1" as="geometry">
            <mxPoint x="250" y="480" as="targetPoint" />
          </mxGeometry>
        </mxCell>
        <mxCell id="ZI4Q1Gcq6WXjkIjY-rak-45" style="edgeStyle=orthogonalEdgeStyle;rounded=0;orthogonalLoop=1;jettySize=auto;html=1;" parent="1" source="ZI4Q1Gcq6WXjkIjY-rak-40" target="ZI4Q1Gcq6WXjkIjY-rak-46" edge="1">
          <mxGeometry relative="1" as="geometry">
            <mxPoint x="360" y="580" as="targetPoint" />
          </mxGeometry>
        </mxCell>
        <mxCell id="ZI4Q1Gcq6WXjkIjY-rak-40" value="" style="rhombus;whiteSpace=wrap;html=1;" parent="1" vertex="1">
          <mxGeometry x="320" y="440" width="80" height="80" as="geometry" />
        </mxCell>
        <mxCell id="ZI4Q1Gcq6WXjkIjY-rak-54" style="edgeStyle=orthogonalEdgeStyle;rounded=0;orthogonalLoop=1;jettySize=auto;html=1;" parent="1" source="ZI4Q1Gcq6WXjkIjY-rak-43" target="ZI4Q1Gcq6WXjkIjY-rak-37" edge="1">
          <mxGeometry relative="1" as="geometry">
            <mxPoint x="230" y="790" as="targetPoint" />
            <Array as="points">
              <mxPoint x="190" y="720" />
              <mxPoint x="360" y="720" />
            </Array>
          </mxGeometry>
        </mxCell>
        <mxCell id="ZI4Q1Gcq6WXjkIjY-rak-43" value="Normal&amp;nbsp;passenger" style="rounded=1;whiteSpace=wrap;html=1;" parent="1" vertex="1">
          <mxGeometry x="130" y="450" width="120" height="50" as="geometry" />
        </mxCell>
        <mxCell id="ZI4Q1Gcq6WXjkIjY-rak-47" style="edgeStyle=orthogonalEdgeStyle;rounded=0;orthogonalLoop=1;jettySize=auto;html=1;" parent="1" source="ZI4Q1Gcq6WXjkIjY-rak-44" edge="1">
          <mxGeometry relative="1" as="geometry">
            <mxPoint x="540" y="530" as="targetPoint" />
          </mxGeometry>
        </mxCell>
        <mxCell id="ZI4Q1Gcq6WXjkIjY-rak-44" value="Premium&amp;nbsp;passenger" style="rounded=1;whiteSpace=wrap;html=1;" parent="1" vertex="1">
          <mxGeometry x="480" y="450" width="120" height="50" as="geometry" />
        </mxCell>
        <mxCell id="ZI4Q1Gcq6WXjkIjY-rak-49" style="edgeStyle=orthogonalEdgeStyle;rounded=0;orthogonalLoop=1;jettySize=auto;html=1;" parent="1" source="ZI4Q1Gcq6WXjkIjY-rak-46" edge="1">
          <mxGeometry relative="1" as="geometry">
            <mxPoint x="360" y="640" as="targetPoint" />
          </mxGeometry>
        </mxCell>
        <mxCell id="ZI4Q1Gcq6WXjkIjY-rak-46" value="Student Passenger" style="rounded=1;whiteSpace=wrap;html=1;" parent="1" vertex="1">
          <mxGeometry x="300" y="550" width="120" height="50" as="geometry" />
        </mxCell>
        <mxCell id="ZI4Q1Gcq6WXjkIjY-rak-56" style="edgeStyle=orthogonalEdgeStyle;rounded=0;orthogonalLoop=1;jettySize=auto;html=1;entryX=0.5;entryY=0;entryDx=0;entryDy=0;exitX=0.5;exitY=1;exitDx=0;exitDy=0;" parent="1" source="mc7jAROY2LVUds7l7tO7-1" target="ZI4Q1Gcq6WXjkIjY-rak-37" edge="1">
          <mxGeometry relative="1" as="geometry">
            <mxPoint x="540" y="770" as="targetPoint" />
            <Array as="points">
              <mxPoint x="540" y="720" />
              <mxPoint x="360" y="720" />
            </Array>
            <mxPoint x="540" y="710" as="sourcePoint" />
          </mxGeometry>
        </mxCell>
        <mxCell id="mc7jAROY2LVUds7l7tO7-2" style="edgeStyle=orthogonalEdgeStyle;rounded=0;orthogonalLoop=1;jettySize=auto;html=1;entryX=0.5;entryY=0;entryDx=0;entryDy=0;" edge="1" parent="1" source="ZI4Q1Gcq6WXjkIjY-rak-48" target="mc7jAROY2LVUds7l7tO7-1">
          <mxGeometry relative="1" as="geometry" />
        </mxCell>
        <mxCell id="ZI4Q1Gcq6WXjkIjY-rak-48" value="Available Offer" style="rounded=1;whiteSpace=wrap;html=1;" parent="1" vertex="1">
          <mxGeometry x="480" y="530" width="120" height="60" as="geometry" />
        </mxCell>
        <mxCell id="ZI4Q1Gcq6WXjkIjY-rak-55" style="edgeStyle=orthogonalEdgeStyle;rounded=0;orthogonalLoop=1;jettySize=auto;html=1;" parent="1" source="ZI4Q1Gcq6WXjkIjY-rak-50" target="ZI4Q1Gcq6WXjkIjY-rak-37" edge="1">
          <mxGeometry relative="1" as="geometry" />
        </mxCell>
        <mxCell id="ZI4Q1Gcq6WXjkIjY-rak-50" value="Half Rent Offer" style="rounded=1;whiteSpace=wrap;html=1;" parent="1" vertex="1">
          <mxGeometry x="300" y="640" width="120" height="50" as="geometry" />
        </mxCell>
        <mxCell id="ZI4Q1Gcq6WXjkIjY-rak-58" value="" style="rhombus;whiteSpace=wrap;html=1;" parent="1" vertex="1">
          <mxGeometry x="320" y="850" width="80" height="80" as="geometry" />
        </mxCell>
        <mxCell id="ZI4Q1Gcq6WXjkIjY-rak-66" value="" style="endArrow=classic;html=1;rounded=0;entryX=1;entryY=0.5;entryDx=0;entryDy=0;" parent="1" source="ZI4Q1Gcq6WXjkIjY-rak-58" target="ZI4Q1Gcq6WXjkIjY-rak-39" edge="1">
          <mxGeometry relative="1" as="geometry">
            <mxPoint x="220" y="890" as="sourcePoint" />
            <mxPoint x="220" y="890" as="targetPoint" />
          </mxGeometry>
        </mxCell>
        <mxCell id="ZI4Q1Gcq6WXjkIjY-rak-67" value="Train Available" style="edgeLabel;resizable=0;html=1;align=center;verticalAlign=middle;" parent="ZI4Q1Gcq6WXjkIjY-rak-66" connectable="0" vertex="1">
          <mxGeometry relative="1" as="geometry" />
        </mxCell>
        <mxCell id="ZI4Q1Gcq6WXjkIjY-rak-68" value="" style="endArrow=classic;html=1;rounded=0;entryX=1;entryY=0.5;entryDx=0;entryDy=0;" parent="1" target="ZI4Q1Gcq6WXjkIjY-rak-37" edge="1">
          <mxGeometry relative="1" as="geometry">
            <mxPoint x="400" y="890" as="sourcePoint" />
            <mxPoint x="510" y="760" as="targetPoint" />
            <Array as="points">
              <mxPoint x="510" y="890" />
              <mxPoint x="510" y="790" />
            </Array>
          </mxGeometry>
        </mxCell>
        <mxCell id="ZI4Q1Gcq6WXjkIjY-rak-69" value="No &lt;br&gt;Train Available" style="edgeLabel;resizable=0;html=1;align=center;verticalAlign=middle;" parent="ZI4Q1Gcq6WXjkIjY-rak-68" connectable="0" vertex="1">
          <mxGeometry relative="1" as="geometry">
            <mxPoint y="-20" as="offset" />
          </mxGeometry>
        </mxCell>
        <mxCell id="ZI4Q1Gcq6WXjkIjY-rak-71" value="" style="rhombus;whiteSpace=wrap;html=1;" parent="1" vertex="1">
          <mxGeometry x="100" y="1070" width="80" height="80" as="geometry" />
        </mxCell>
        <mxCell id="ZI4Q1Gcq6WXjkIjY-rak-74" style="edgeStyle=orthogonalEdgeStyle;rounded=0;orthogonalLoop=1;jettySize=auto;html=1;entryX=0.5;entryY=0;entryDx=0;entryDy=0;" parent="1" source="ZI4Q1Gcq6WXjkIjY-rak-73" target="ZI4Q1Gcq6WXjkIjY-rak-71" edge="1">
          <mxGeometry relative="1" as="geometry" />
        </mxCell>
        <mxCell id="ZI4Q1Gcq6WXjkIjY-rak-73" value="Payment" style="rounded=1;whiteSpace=wrap;html=1;" parent="1" vertex="1">
          <mxGeometry x="80" y="970" width="120" height="60" as="geometry" />
        </mxCell>
        <mxCell id="ZI4Q1Gcq6WXjkIjY-rak-77" value="" style="endArrow=classic;html=1;rounded=0;" parent="1" edge="1">
          <mxGeometry relative="1" as="geometry">
            <mxPoint x="140" y="1150" as="sourcePoint" />
            <mxPoint x="140" y="1210" as="targetPoint" />
          </mxGeometry>
        </mxCell>
        <mxCell id="ZI4Q1Gcq6WXjkIjY-rak-78" value="Confirm" style="edgeLabel;resizable=0;html=1;align=center;verticalAlign=middle;" parent="ZI4Q1Gcq6WXjkIjY-rak-77" connectable="0" vertex="1">
          <mxGeometry relative="1" as="geometry" />
        </mxCell>
        <mxCell id="ZI4Q1Gcq6WXjkIjY-rak-79" value="" style="endArrow=classic;html=1;rounded=0;entryX=-0.011;entryY=0.565;entryDx=0;entryDy=0;entryPerimeter=0;" parent="1" source="ZI4Q1Gcq6WXjkIjY-rak-71" edge="1" target="ZI4Q1Gcq6WXjkIjY-rak-73">
          <mxGeometry relative="1" as="geometry">
            <mxPoint y="1110" as="sourcePoint" />
            <mxPoint x="10" y="1000" as="targetPoint" />
            <Array as="points">
              <mxPoint x="10" y="1110" />
              <mxPoint x="10" y="1004" />
            </Array>
          </mxGeometry>
        </mxCell>
        <mxCell id="ZI4Q1Gcq6WXjkIjY-rak-80" value="Not Confirm" style="edgeLabel;resizable=0;html=1;align=center;verticalAlign=middle;" parent="ZI4Q1Gcq6WXjkIjY-rak-79" connectable="0" vertex="1">
          <mxGeometry relative="1" as="geometry">
            <mxPoint y="-18" as="offset" />
          </mxGeometry>
        </mxCell>
        <mxCell id="mc7jAROY2LVUds7l7tO7-1" value="Select Offer" style="rounded=1;whiteSpace=wrap;html=1;" vertex="1" parent="1">
          <mxGeometry x="480" y="630" width="120" height="60" as="geometry" />
        </mxCell>
        <mxCell id="mc7jAROY2LVUds7l7tO7-6" style="edgeStyle=orthogonalEdgeStyle;rounded=0;orthogonalLoop=1;jettySize=auto;html=1;entryX=0.5;entryY=0;entryDx=0;entryDy=0;" edge="1" parent="1" source="mc7jAROY2LVUds7l7tO7-5">
          <mxGeometry relative="1" as="geometry">
            <mxPoint x="140" y="1320" as="targetPoint" />
          </mxGeometry>
        </mxCell>
        <mxCell id="mc7jAROY2LVUds7l7tO7-5" value="&lt;span style=&quot;color: rgb(0, 0, 0); font-family: Helvetica; font-size: 12px; font-style: normal; font-variant-ligatures: normal; font-variant-caps: normal; font-weight: 400; letter-spacing: normal; orphans: 2; text-align: center; text-indent: 0px; text-transform: none; widows: 2; word-spacing: 0px; -webkit-text-stroke-width: 0px; background-color: rgb(251, 251, 251); text-decoration-thickness: initial; text-decoration-style: initial; text-decoration-color: initial; float: none; display: inline !important;&quot;&gt;Print Ticket&lt;/span&gt;" style="rounded=1;whiteSpace=wrap;html=1;" vertex="1" parent="1">
          <mxGeometry x="80" y="1210" width="120" height="60" as="geometry" />
        </mxCell>
        <mxCell id="mc7jAROY2LVUds7l7tO7-7" value="" style="ellipse;whiteSpace=wrap;html=1;aspect=fixed;" vertex="1" parent="1">
          <mxGeometry x="100" y="1320" width="80" height="80" as="geometry" />
        </mxCell>
        <mxCell id="mc7jAROY2LVUds7l7tO7-8" value="" style="ellipse;whiteSpace=wrap;html=1;aspect=fixed;fillColor=#000000;" vertex="1" parent="1">
          <mxGeometry x="115" y="1335" width="50" height="50" as="geometry" />
        </mxCell>
        <mxCell id="mc7jAROY2LVUds7l7tO7-9" value="Exit" style="text;html=1;align=center;verticalAlign=middle;resizable=0;points=[];autosize=1;strokeColor=none;fillColor=none;" vertex="1" parent="1">
          <mxGeometry x="120" y="1410" width="40" height="30" as="geometry" />
        </mxCell>
      </root>
    </mxGraphModel>
  </diagram>
</mxfile>
